<svg xmlns="http://www.w3.org/2000/svg" viewBox="0 0 451.43 427.39"><g id="Layer_2" data-name="Layer 2"><g id="Layer_1-2" data-name="Layer 1"><path d="M152.78,69c9-55.27,26.53-70.35,80.08-68.88,41.31,1.13,60,20.66,65.29,71,27.44,0,55.28-.06,83.13,0,46.86.13,69.67,22.3,69.9,69.12q.51,108.83,0,217.67c-.2,47.57-22,69.22-69.42,69.31q-156.49.28-313,0c-46.19-.1-68.23-21.86-68.48-68Q-.3,249.3.31,139.34c.25-45.45,23.4-68,68.59-68.21,26.63-.15,53.26-.26,79.88-.5C150.12,70.62,151.45,69.56,152.78,69Zm70.74,335.7c52.59,0,105.18.09,157.78,0,35.33-.08,47.74-12.61,47.81-48.49q.19-106.74,0-213.48C429,107,416.19,94,381.26,94q-155.55-.08-311.12,0C36,94,22.48,107,22.38,140.47q-.3,109,0,217.93c.09,33,13.1,46.09,45.57,46.22C119.81,404.83,171.66,404.68,223.52,404.68ZM272.09,69.85c4.42-18.33.12-36.25-15.7-40.24a128.9,128.9,0,0,0-61.64.25c-15.8,4.1-19.77,22-15.37,40Z"/><path d="M355.7,249.35c0,72.38-57.07,129.85-129.27,130.24-73.06.4-131-57.77-130.67-131.07.36-72.32,57.72-129,130.39-128.93C298.51,119.69,355.74,177,355.7,249.35Zm-129.1-107C166.05,142.07,119.27,188.05,119,248c-.23,62,45.86,108.89,106.92,108.8,59.22-.08,106-46.17,106.46-104.81C332.88,189.67,287.44,142.57,226.6,142.32Z"/><rect x="197.08" y="212.77" width="16.64" height="78.02"/><rect x="228.02" y="243.59" width="16.64" height="78.02" transform="translate(-46.27 518.94) rotate(-90)"/><polygon points="220.27 212.66 205.41 212.77 190.54 212.87 197.88 199.94 205.23 187.02 212.75 199.84 220.27 212.66"/><polygon points="271.12 297.47 271.12 282.61 271.12 267.74 283.99 275.17 296.86 282.61 283.99 290.04 271.12 297.47"/></g></g></svg>