<svg xmlns="http://www.w3.org/2000/svg" viewBox="0 0 50 49.57"><g id="Layer_2" data-name="Layer 2"><g id="Layer_1-2" data-name="Layer 1"><path d="M10.89,23.75A31.12,31.12,0,0,0,26,38.79c1-1,2-2.07,3-3.12a3,3,0,0,1,4.83,0l5.74,5.74a2.94,2.94,0,0,1,.11,4.43,10.74,10.74,0,0,1-6.61,3.66,14.89,14.89,0,0,1-6.14-.78,32.84,32.84,0,0,1-11.81-6.49A55.16,55.16,0,0,1,3.06,28.83,17.83,17.83,0,0,1,.19,16.49a10.59,10.59,0,0,1,4-6.75A2.82,2.82,0,0,1,8,9.83q3.29,3.18,6.46,6.46a2.84,2.84,0,0,1-.21,4.18C13.11,21.59,12,22.67,10.89,23.75Z"/><path d="M18.77,2.88,19,0C35-.24,49.4,13.05,50,29.73L47.14,30A28.61,28.61,0,0,0,18.77,2.88Z"/><path d="M18.91,6.87A24.45,24.45,0,0,1,43.12,30.41l-2.86.21c-.17-1.19-.28-2.36-.52-3.49a21,21,0,0,0-13.89-16A32.56,32.56,0,0,0,20.07,9.9c-.47-.08-.69-.21-.76-.67C19.2,8.46,19.05,7.7,18.91,6.87Z"/><path d="M20.35,13.84A17.51,17.51,0,0,1,36.21,30.68c-.39,0-.77,0-1.16,0-.56,0-1.13-.1-1.62-.15-.3-1.28-.49-2.52-.88-3.69A14.15,14.15,0,0,0,21.72,17.1c-.65-.15-1.16-.26-1.12-1.11a10,10,0,0,0-.25-1.78C20.34,14.12,20.35,14,20.35,13.84Z"/><path d="M19.72,23l1-2.57A11.12,11.12,0,0,1,29.85,30c-.94-.08-1.87-.12-2.78-.27-.19,0-.38-.43-.46-.7a7.91,7.91,0,0,0-3.69-4.74A30.13,30.13,0,0,0,19.72,23Z"/></g></g></svg>