<svg xmlns="http://www.w3.org/2000/svg" viewBox="0 0 391.23 391.29"><g id="Layer_2" data-name="Layer 2"><g id="Layer_1-2" data-name="Layer 1"><path d="M195.79,0h-.19A195.5,195.5,0,0,0,57.1,333.58a194.6,194.6,0,0,0,138.49,57.71h.18A196,196,0,0,0,391.23,195.62C391.13,87.71,303.47,0,195.79,0ZM369.34,196.06a174,174,0,0,1-174,173.31H195c-95.56-.21-173.2-78.53-173.08-174.59C22,99.45,100,21.93,195.73,21.93h.1C291.51,22,369.35,100.09,369.34,196.06Z"/><path d="M220.13,142.22c0,17.72.48,34.63-.29,51.49a24.85,24.85,0,0,1-6.27,14.76c-14.91,15.75-30.78,30.58-45.8,46.23a34.82,34.82,0,0,0-8.18,14.51c-4.37,16.35-7.74,33-11.64,49.44-2.69,11.33-8.44,15.91-17.25,14.1-8.44-1.74-11.92-9.17-9.23-20.12,4.86-19.73,10.18-39.36,14.57-59.19,2.2-9.93,5.37-19,13.88-25,22.08-15.6,29.84-36.63,25.75-63.08-1.33-8.6,1.13-17.84-.45-26.35-3-16.32,9.8-19.15,19.13-25.53,8.55-5.84,15.74-2.91,23.4,1.87,12.06,7.53,24.81,14,36.48,22.09,4,2.76,7.52,8.85,7.84,13.65,1,14.85.36,29.81.37,44.73,0,7.49-2.84,12.87-11.09,12.63-7.89-.22-9.87-5.88-9.84-12.72,0-7.79-1-15.77.21-23.35C244.5,155.71,236.12,147.38,220.13,142.22Z"/><path d="M191.61,226.18l19-18.62c1.66,2.34,3.29,4.3,4.55,6.48q25.88,44.76,51.65,89.6c6,10.49,4.81,18.56-3.17,22.74-7.51,3.94-14.72.75-20.39-9.21C226.25,287.23,209.25,257.25,191.61,226.18Z"/><path d="M167.13,84.23c.47-9.1,5.86-17.35,15.68-22.18,10.27-5,21-5.68,30.89,1,7.69,5.2,9.34,16.13,3.53,24.47a48.26,48.26,0,0,1-30.52,20.29C175.83,110.06,167.18,100.2,167.13,84.23Z"/><path d="M175.2,153.77c10.15,28.6-10.78,40.8-26.6,55.08-2.15,2-10.66.5-12.74-2.13s-2.09-10.56.29-13.2C148.48,179.86,161.86,167.15,175.2,153.77Z"/><rect x="188.05" y="-2.72" width="24.78" height="373.38" transform="translate(-70.77 162.39) rotate(-38)"/></g></g></svg>